{
    "asset" : {
        "generator" : "Khronos glTF Blender I/O v0.9.36",
        "version" : "2.0"
    },
    "scene" : 0,
    "scenes" : [
        {
            "name" : "Scene",
            "nodes" : [
                0,
                1,
                2,
                3
            ]
        }
    ],
    "nodes" : [
        {
            "mesh" : 0,
            "name" : "Fence Support"
        },
        {
            "mesh" : 1,
            "name" : "Fence All"
        },
        {
            "mesh" : 2,
            "name" : "Fence Support All"
        },
        {
            "mesh" : 3,
            "name" : "Grass"
        }
    ],
    "materials" : [
        {
            "doubleSided" : true,
            "name" : "Fence",
            "pbrMetallicRoughness" : {
                "baseColorFactor" : [
                    0.8000000715255737,
                    0.3063945174217224,
                    0.07356726378202438,
                    1
                ],
                "metallicFactor" : 0,
                "roughnessFactor" : 0.7583333253860474
            }
        },
        {
            "doubleSided" : true,
            "name" : "Fence.001",
            "pbrMetallicRoughness" : {
                "baseColorFactor" : [
                    0.8000000715255737,
                    0.3063945174217224,
                    0.07356726378202438,
                    1
                ],
                "metallicFactor" : 0,
                "roughnessFactor" : 0.7583333253860474
            }
        },
        {
            "doubleSided" : true,
            "name" : "Grass",
            "pbrMetallicRoughness" : {
                "baseColorFactor" : [
                    0.2753151059150696,
                    0.8000000715255737,
                    0.19118735194206238,
                    1
                ],
                "metallicFactor" : 0,
                "roughnessFactor" : 0.875
            }
        }
    ],
    "meshes" : [
        {
            "name" : "Plane.001",
            "primitives" : [
                {
                    "attributes" : {
                        "POSITION" : 0,
                        "NORMAL" : 1,
                        "TEXCOORD_0" : 2,
                        "COLOR_0" : 3
                    },
                    "indices" : 4,
                    "material" : 0
                }
            ]
        },
        {
            "name" : "Plane.002",
            "primitives" : [
                {
                    "attributes" : {
                        "POSITION" : 5,
                        "NORMAL" : 6,
                        "TEXCOORD_0" : 7,
                        "COLOR_0" : 8
                    },
                    "indices" : 9,
                    "material" : 0
                }
            ]
        },
        {
            "name" : "Plane.004",
            "primitives" : [
                {
                    "attributes" : {
                        "POSITION" : 10,
                        "NORMAL" : 11,
                        "TEXCOORD_0" : 12,
                        "COLOR_0" : 13
                    },
                    "indices" : 14,
                    "material" : 1
                }
            ]
        },
        {
            "name" : "Plane.005",
            "primitives" : [
                {
                    "attributes" : {
                        "POSITION" : 15,
                        "NORMAL" : 16,
                        "TEXCOORD_0" : 17
                    },
                    "indices" : 18,
                    "material" : 2
                }
            ]
        }
    ],
    "accessors" : [
        {
            "bufferView" : 0,
            "componentType" : 5126,
            "count" : 24,
            "max" : [
                -71.66133117675781,
                1.2192000150680542,
                71.7627944946289
            ],
            "min" : [
                -71.76292419433594,
                0,
                71.66120147705078
            ],
            "type" : "VEC3"
        },
        {
            "bufferView" : 1,
            "componentType" : 5126,
            "count" : 24,
            "type" : "VEC3"
        },
        {
            "bufferView" : 2,
            "componentType" : 5126,
            "count" : 24,
            "type" : "VEC2"
        },
        {
            "bufferView" : 3,
            "componentType" : 5126,
            "count" : 24,
            "type" : "VEC4"
        },
        {
            "bufferView" : 4,
            "componentType" : 5123,
            "count" : 36,
            "type" : "SCALAR"
        },
        {
            "bufferView" : 5,
            "componentType" : 5126,
            "count" : 144,
            "max" : [
                60.868560791015625,
                1.2192000150680542,
                60.944007873535156
            ],
            "min" : [
                -61.00775909423828,
                0.23546984791755676,
                -60.959999084472656
            ],
            "type" : "VEC3"
        },
        {
            "bufferView" : 6,
            "componentType" : 5126,
            "count" : 144,
            "type" : "VEC3"
        },
        {
            "bufferView" : 7,
            "componentType" : 5126,
            "count" : 144,
            "type" : "VEC2"
        },
        {
            "bufferView" : 8,
            "componentType" : 5126,
            "count" : 144,
            "type" : "VEC4"
        },
        {
            "bufferView" : 9,
            "componentType" : 5123,
            "count" : 216,
            "type" : "SCALAR"
        },
        {
            "bufferView" : 10,
            "componentType" : 5126,
            "count" : 960,
            "max" : [
                60.959999084472656,
                1.2192000150680542,
                61.04560089111328
            ],
            "min" : [
                -61.06159210205078,
                0,
                -54.87999725341797
            ],
            "type" : "VEC3"
        },
        {
            "bufferView" : 11,
            "componentType" : 5126,
            "count" : 960,
            "type" : "VEC3"
        },
        {
            "bufferView" : 12,
            "componentType" : 5126,
            "count" : 960,
            "type" : "VEC2"
        },
        {
            "bufferView" : 13,
            "componentType" : 5126,
            "count" : 960,
            "type" : "VEC4"
        },
        {
            "bufferView" : 14,
            "componentType" : 5123,
            "count" : 1440,
            "type" : "SCALAR"
        },
        {
            "bufferView" : 15,
            "componentType" : 5126,
            "count" : 28,
            "max" : [
                60.959999084472656,
                0,
                60.959999084472656
            ],
            "min" : [
                -60.959999084472656,
                0,
                -60.959999084472656
            ],
            "type" : "VEC3"
        },
        {
            "bufferView" : 16,
            "componentType" : 5126,
            "count" : 28,
            "type" : "VEC3"
        },
        {
            "bufferView" : 17,
            "componentType" : 5126,
            "count" : 28,
            "type" : "VEC2"
        },
        {
            "bufferView" : 18,
            "componentType" : 5123,
            "count" : 54,
            "type" : "SCALAR"
        }
    ],
    "bufferViews" : [
        {
            "buffer" : 0,
            "byteLength" : 288,
            "byteOffset" : 0
        },
        {
            "buffer" : 0,
            "byteLength" : 288,
            "byteOffset" : 288
        },
        {
            "buffer" : 0,
            "byteLength" : 192,
            "byteOffset" : 576
        },
        {
            "buffer" : 0,
            "byteLength" : 384,
            "byteOffset" : 768
        },
        {
            "buffer" : 0,
            "byteLength" : 72,
            "byteOffset" : 1152
        },
        {
            "buffer" : 0,
            "byteLength" : 1728,
            "byteOffset" : 1224
        },
        {
            "buffer" : 0,
            "byteLength" : 1728,
            "byteOffset" : 2952
        },
        {
            "buffer" : 0,
            "byteLength" : 1152,
            "byteOffset" : 4680
        },
        {
            "buffer" : 0,
            "byteLength" : 2304,
            "byteOffset" : 5832
        },
        {
            "buffer" : 0,
            "byteLength" : 432,
            "byteOffset" : 8136
        },
        {
            "buffer" : 0,
            "byteLength" : 11520,
            "byteOffset" : 8568
        },
        {
            "buffer" : 0,
            "byteLength" : 11520,
            "byteOffset" : 20088
        },
        {
            "buffer" : 0,
            "byteLength" : 7680,
            "byteOffset" : 31608
        },
        {
            "buffer" : 0,
            "byteLength" : 15360,
            "byteOffset" : 39288
        },
        {
            "buffer" : 0,
            "byteLength" : 2880,
            "byteOffset" : 54648
        },
        {
            "buffer" : 0,
            "byteLength" : 336,
            "byteOffset" : 57528
        },
        {
            "buffer" : 0,
            "byteLength" : 336,
            "byteOffset" : 57864
        },
        {
            "buffer" : 0,
            "byteLength" : 224,
            "byteOffset" : 58200
        },
        {
            "buffer" : 0,
            "byteLength" : 108,
            "byteOffset" : 58424
        }
    ],
    "buffers" : [
        {
            "byteLength" : 58532,
            "uri" : "Environment.bin"
        }
    ]
}
