{
    "asset" : {
        "generator" : "Khronos glTF Blender I/O v0.9.36",
        "version" : "2.0"
    },
    "scene" : 0,
    "scenes" : [
        {
            "name" : "Scene",
            "nodes" : [
                0,
                1,
                2
            ]
        }
    ],
    "nodes" : [
        {
            "mesh" : 0,
            "name" : "FenceAll"
        },
        {
            "mesh" : 1,
            "name" : "FenceSupportAll"
        },
        {
            "mesh" : 2,
            "name" : "GrassRound"
        }
    ],
    "materials" : [
        {
            "doubleSided" : true,
            "name" : "Fence",
            "pbrMetallicRoughness" : {
                "baseColorFactor" : [
                    0.8000000715255737,
                    0.3063945174217224,
                    0.07356726378202438,
                    1
                ],
                "metallicFactor" : 0,
                "roughnessFactor" : 0.7583333253860474
            }
        },
        {
            "doubleSided" : true,
            "name" : "Fence.001",
            "pbrMetallicRoughness" : {
                "baseColorFactor" : [
                    0.8000000715255737,
                    0.3063945174217224,
                    0.07356726378202438,
                    1
                ],
                "metallicFactor" : 0,
                "roughnessFactor" : 0.7583333253860474
            }
        },
        {
            "doubleSided" : true,
            "name" : "Grass",
            "pbrMetallicRoughness" : {
                "baseColorFactor" : [
                    0.2753151059150696,
                    0.8000000715255737,
                    0.19118735194206238,
                    1
                ],
                "metallicFactor" : 0,
                "roughnessFactor" : 0.875
            }
        }
    ],
    "meshes" : [
        {
            "name" : "Plane.002",
            "primitives" : [
                {
                    "attributes" : {
                        "POSITION" : 0,
                        "NORMAL" : 1,
                        "TEXCOORD_0" : 2,
                        "COLOR_0" : 3
                    },
                    "indices" : 4,
                    "material" : 0
                }
            ]
        },
        {
            "name" : "Plane.004",
            "primitives" : [
                {
                    "attributes" : {
                        "POSITION" : 5,
                        "NORMAL" : 6,
                        "TEXCOORD_0" : 7,
                        "COLOR_0" : 8
                    },
                    "indices" : 9,
                    "material" : 1
                }
            ]
        },
        {
            "name" : "Circle",
            "primitives" : [
                {
                    "attributes" : {
                        "POSITION" : 10,
                        "NORMAL" : 11,
                        "TEXCOORD_0" : 12
                    },
                    "indices" : 13,
                    "material" : 2
                }
            ]
        }
    ],
    "accessors" : [
        {
            "bufferView" : 0,
            "componentType" : 5126,
            "count" : 288,
            "max" : [
                60.868560791015625,
                1.2192000150680542,
                60.944007873535156
            ],
            "min" : [
                -61.00775909423828,
                0.23546984791755676,
                -60.959999084472656
            ],
            "type" : "VEC3"
        },
        {
            "bufferView" : 1,
            "componentType" : 5126,
            "count" : 288,
            "type" : "VEC3"
        },
        {
            "bufferView" : 2,
            "componentType" : 5126,
            "count" : 288,
            "type" : "VEC2"
        },
        {
            "bufferView" : 3,
            "componentType" : 5126,
            "count" : 288,
            "type" : "VEC4"
        },
        {
            "bufferView" : 4,
            "componentType" : 5123,
            "count" : 432,
            "type" : "SCALAR"
        },
        {
            "bufferView" : 5,
            "componentType" : 5126,
            "count" : 1920,
            "max" : [
                60.959999084472656,
                1.2192000150680542,
                61.04560089111328
            ],
            "min" : [
                -61.06159973144531,
                0,
                -60.97599792480469
            ],
            "type" : "VEC3"
        },
        {
            "bufferView" : 6,
            "componentType" : 5126,
            "count" : 1920,
            "type" : "VEC3"
        },
        {
            "bufferView" : 7,
            "componentType" : 5126,
            "count" : 1920,
            "type" : "VEC2"
        },
        {
            "bufferView" : 8,
            "componentType" : 5126,
            "count" : 1920,
            "type" : "VEC4"
        },
        {
            "bufferView" : 9,
            "componentType" : 5123,
            "count" : 2880,
            "type" : "SCALAR"
        },
        {
            "bufferView" : 10,
            "componentType" : 5126,
            "count" : 73,
            "max" : [
                304.7294616699219,
                0,
                304.517822265625
            ],
            "min" : [
                -304.7294616699219,
                0,
                -304.8000183105469
            ],
            "type" : "VEC3"
        },
        {
            "bufferView" : 11,
            "componentType" : 5126,
            "count" : 73,
            "type" : "VEC3"
        },
        {
            "bufferView" : 12,
            "componentType" : 5126,
            "count" : 73,
            "type" : "VEC2"
        },
        {
            "bufferView" : 13,
            "componentType" : 5123,
            "count" : 213,
            "type" : "SCALAR"
        }
    ],
    "bufferViews" : [
        {
            "buffer" : 0,
            "byteLength" : 3456,
            "byteOffset" : 0
        },
        {
            "buffer" : 0,
            "byteLength" : 3456,
            "byteOffset" : 3456
        },
        {
            "buffer" : 0,
            "byteLength" : 2304,
            "byteOffset" : 6912
        },
        {
            "buffer" : 0,
            "byteLength" : 4608,
            "byteOffset" : 9216
        },
        {
            "buffer" : 0,
            "byteLength" : 864,
            "byteOffset" : 13824
        },
        {
            "buffer" : 0,
            "byteLength" : 23040,
            "byteOffset" : 14688
        },
        {
            "buffer" : 0,
            "byteLength" : 23040,
            "byteOffset" : 37728
        },
        {
            "buffer" : 0,
            "byteLength" : 15360,
            "byteOffset" : 60768
        },
        {
            "buffer" : 0,
            "byteLength" : 30720,
            "byteOffset" : 76128
        },
        {
            "buffer" : 0,
            "byteLength" : 5760,
            "byteOffset" : 106848
        },
        {
            "buffer" : 0,
            "byteLength" : 876,
            "byteOffset" : 112608
        },
        {
            "buffer" : 0,
            "byteLength" : 876,
            "byteOffset" : 113484
        },
        {
            "buffer" : 0,
            "byteLength" : 584,
            "byteOffset" : 114360
        },
        {
            "buffer" : 0,
            "byteLength" : 426,
            "byteOffset" : 114944
        }
    ],
    "buffers" : [
        {
            "byteLength" : 115372,
            "uri" : "Grass.bin"
        }
    ]
}
